# xmcd
#
# Track frame offsets: 
#        150
#        15602
#        26755
#        36936
#        49948
#        58259
#        73145
#        84204
#        99058
#        110518
#        123803
#        133248
#        145722
#        154762
#        166618
#        178005
#        193478
#        204332
#        217395
#        233780
#
# Disc length: 3280 seconds
#
# Revision: 0
# Processed by: cddbd v1.5.2PL0 Copyright (c) Steve Scherf et al.
# Submitted via: ExactAudioCopyFreeDBPlugin 1.0
#
DISCID=1e0cce14
DTITLE=The Golden Gate Quartet - Platinum Collection
DYEAR=2009
DGENRE=Gospel
TTITLE0=Golden Slippers
TTITLE1=Rock my Soul
TTITLE2=Elijah
TTITLE3=Nobody knows the trouble I've seen
TTITLE4=Ballin' The Jack
TTITLE5=You never walk alone
TTITLE6=Get on Board
TTITLE7=Sometimes I feel like a motherless Child
TTITLE8=There Is No Greater Love
TTITLE9=Mister blue
TTITLE10=Ezekiel saw the Wheel
TTITLE11=When the Saints go marchin' in
TTITLE12=For The Rest Of My Life
TTITLE13=Poor little Jesus
TTITLE14=When was Jesus born
TTITLE15=Keep me from sinking down
TTITLE16=Rudolph, the red nose reindeer
TTITLE17=Joy to the world
TTITLE18=White Christmas
TTITLE19=Silent Night
EXTD=
EXTT0=
EXTT1=
EXTT2=
EXTT3=
EXTT4=
EXTT5=
EXTT6=
EXTT7=
EXTT8=
EXTT9=
EXTT10=
EXTT11=
EXTT12=
EXTT13=
EXTT14=
EXTT15=
EXTT16=
EXTT17=
EXTT18=
EXTT19=
PLAYORDER=
